# xmcd
#
# Track frame offsets:
#	150
#	11840
#	27925
#	38823
#	51212
#	63085
#	72957
#	82583
#	93801
#	105302
#	111360
#	118733
#	126208
#	135572
#	145264
#	159213
#	167399
#
# Disc length: 2402 seconds
#
# Revision: 0
# Processed by: cddbd v1.4PL0 Copyright (c) Steve Scherf et al.
# Submitted via: dBpowerAMP V4.0
#
DISCID=d0096011
DTITLE=MaryZCox - Walkn That Banjo Home
DYEAR=1900
DGENRE=Bluegrass
TTITLE0=Greasy Coat
TTITLE1=Snowdrop
TTITLE2=Westphalia Waltz
TTITLE3=Pig Ankle Rag
TTITLE4=Julie Ann Johnson
TTITLE5=Southwind
TTITLE6=Duck River
TTITLE7=Rachael
TTITLE8=Walkn That Pretty Girl Home
TTITLE9=Blackberry Blossom
TTITLE10=Old Tobacco Hills
TTITLE11=Old Yeller Dog
TTITLE12=Icy Mountain
TTITLE13=Seven Hills
TTITLE14=Squirrel Heads and Gravy
TTITLE15=Hunchback Liza
TTITLE16=Last Chance
EXTD=Old time banjo music
EXTT0=
EXTT1=
EXTT2=
EXTT3=
EXTT4=
EXTT5=
EXTT6=
EXTT7=
EXTT8=
EXTT9=
EXTT10=
EXTT11=
EXTT12=
EXTT13=
EXTT14=
EXTT15=
EXTT16=
PLAYORDER=
